<?xml version="1.0" standalone="no"?>
<!DOCTYPE svg PUBLIC "-//W3C//DTD SVG 20010904//EN"
 "http://www.w3.org/TR/2001/REC-SVG-20010904/DTD/svg10.dtd">
<svg version="1.0" xmlns="http://www.w3.org/2000/svg"
 width="63.000000pt" height="63.000000pt" viewBox="0 0 63.000000 63.000000"
 preserveAspectRatio="xMidYMid meet">

<g transform="translate(0.000000,63.000000) scale(0.100000,-0.100000)"
fill="#000000" stroke="none">
<path d="M245 595 c-33 -19 -67 -43 -76 -54 -10 -12 -27 -21 -39 -21 -12 0
-45 -23 -77 -52 l-55 -53 4 -71 c2 -51 9 -78 21 -91 9 -11 17 -32 17 -46 0
-15 17 -60 37 -101 34 -69 39 -74 75 -80 21 -3 38 -10 38 -15 0 -13 220 -6
276 9 48 13 51 16 87 87 20 40 37 83 37 96 0 13 6 29 13 35 7 8 14 50 17 99
l5 87 -45 43 c-25 24 -56 46 -70 49 -14 4 -36 17 -50 29 -25 22 -139 86 -149
84 -3 -1 -33 -16 -66 -34z m106 -44 l-4 -36 -12 28 c-9 22 -14 25 -22 15 -24
-31 -25 -128 -1 -128 5 0 6 4 3 10 -3 5 0 7 9 4 11 -4 16 3 19 28 2 18 5 0 5
-39 l2 -73 -35 0 -34 0 -3 113 c-3 103 -1 113 17 122 13 7 27 7 40 1 17 -8 20
-17 16 -45z m-122 -2 c-16 -17 -29 -35 -29 -40 0 -5 -7 -9 -15 -9 -23 0 -2 42
31 62 43 24 45 22 13 -13z m188 11 c26 -15 32 -25 30 -49 -2 -28 -17 -34 -17
-6 0 7 -13 27 -29 44 -34 36 -29 39 16 11z m-251 -64 c9 -9 10 -17 4 -21 -6
-3 1 -16 15 -29 30 -28 28 -60 -2 -81 -28 -20 -25 -69 5 -73 18 -3 19 -7 12
-33 -7 -24 -6 -30 4 -26 10 4 12 -1 8 -15 -2 -11 -8 -16 -11 -11 -3 5 -14 1
-23 -9 -17 -17 -16 -17 14 -11 24 5 30 3 26 -8 -5 -16 -68 -25 -68 -10 0 6 -9
11 -19 11 -37 0 -31 18 7 25 35 6 39 9 34 32 -4 20 -2 24 9 18 11 -7 11 -5 -1
10 -14 18 -15 18 -18 -3 -2 -12 -8 -22 -13 -22 -12 0 -11 7 1 29 6 12 5 29 -2
49 l-12 30 -17 -22 c-16 -18 -18 -18 -19 -4 0 9 8 23 18 30 10 7 22 20 27 28
6 12 5 13 -6 3 -15 -15 -29 -17 -29 -4 0 5 8 12 18 16 11 3 24 16 30 30 9 20
9 23 -5 18 -13 -5 -14 -3 -4 15 15 27 14 32 -4 32 -29 0 -42 -22 -34 -57 7
-31 -5 -57 -14 -31 -2 7 -3 5 -2 -4 4 -26 -14 -22 -24 4 l-8 22 -12 -22 c-7
-13 -10 -28 -7 -35 2 -7 5 -3 5 7 1 18 3 18 26 -4 28 -26 24 -45 -6 -29 -27
14 -32 7 -24 -30 5 -25 12 -31 43 -37 54 -9 59 -11 38 -19 -10 -5 -32 -3 -48
3 -27 10 -28 9 -17 -6 6 -9 0 -5 -14 11 -23 24 -26 34 -24 92 2 56 7 69 32 96
24 25 73 56 93 59 2 0 10 -6 18 -14z m397 -35 c43 -40 43 -40 43 -110 -1 -59
-5 -73 -25 -94 -12 -14 -20 -31 -16 -37 4 -6 4 -27 0 -46 -4 -25 -13 -38 -32
-45 -19 -7 -23 -13 -15 -21 12 -12 -4 -58 -20 -58 -5 0 -1 11 7 24 10 15 12
26 6 30 -7 5 -7 15 -1 31 12 31 3 32 -27 3 -17 -16 -26 -19 -34 -11 -8 8 -20
8 -41 1 -24 -8 -32 -8 -39 3 -17 26 -11 42 14 34 32 -10 59 -8 67 5 4 7 10 11
14 11 28 -4 25 3 -14 30 -25 17 -38 29 -30 27 8 -3 20 2 27 11 10 14 14 13 36
-12 30 -36 58 -32 72 8 5 17 13 32 16 35 3 3 10 16 14 30 l7 25 -17 -23 c-12
-17 -20 -20 -29 -13 -7 6 -15 9 -18 6 -8 -9 -30 23 -24 34 4 6 13 8 21 4 9 -3
15 1 15 8 0 10 3 10 12 1 14 -14 38 2 38 27 0 10 -3 12 -8 5 -9 -14 -70 -26
-77 -15 -5 10 19 23 47 26 21 2 37 15 20 15 -7 0 -12 7 -12 17 0 9 -8 24 -17
33 -17 15 -19 15 -34 -3 -8 -11 -22 -18 -29 -15 -11 3 -9 9 7 23 12 10 20 22
17 27 -14 22 21 4 59 -31z m-419 4 c-6 -16 -24 -21 -24 -7 0 11 11 22 21 22 5
0 6 -7 3 -15z m314 -8 c-1 -2 3 -11 11 -20 7 -10 10 -17 6 -17 -4 0 -1 -7 6
-16 18 -21 20 -42 9 -81 -8 -33 -4 -38 27 -34 12 2 38 -37 30 -45 -9 -9 -59 9
-64 22 -4 11 -9 11 -26 2 -12 -7 -25 -12 -29 -13 -3 0 -10 -3 -14 -8 -4 -4
-21 -8 -38 -8 l-31 -1 30 -7 30 -6 -23 -23 c-20 -20 -24 -21 -38 -7 -18 17
-40 20 -49 5 -3 -5 -17 -10 -31 -10 -14 0 -23 4 -19 9 3 5 0 13 -6 17 -7 4 -9
3 -5 -4 3 -6 1 -14 -5 -17 -7 -5 -10 0 -7 11 3 16 12 19 63 16 73 -3 67 6 -11
16 -50 6 -59 10 -59 27 0 17 7 20 43 20 24 0 46 -3 49 -8 2 -4 9 -4 15 -1 19
12 83 12 97 0 11 -8 13 -8 7 2 -5 8 -1 12 12 12 32 0 35 40 7 80 -29 42 -31
56 -10 64 8 3 15 13 15 22 0 10 3 15 6 12 3 -4 4 -8 2 -11z m92 -22 c0 -18
-46 -42 -58 -30 -4 4 -1 10 6 12 7 3 18 11 25 19 16 18 27 17 27 -1z m-406
-16 c-8 -14 -21 -11 -21 5 0 8 6 12 14 9 7 -3 10 -9 7 -14z m-40 -126 c3 -8
-1 -10 -12 -6 -26 9 -42 24 -42 40 0 11 5 10 25 -4 13 -10 26 -23 29 -30z m36
7 c0 -11 -4 -20 -9 -20 -11 0 -22 26 -14 34 12 12 23 5 23 -14z m-5 -69 c9
-16 -13 -23 -35 -11 -21 11 -20 2 7 -50 18 -35 16 -51 -4 -43 -10 3 -15 2 -10
-2 14 -16 77 -33 83 -23 3 5 12 4 20 -3 20 -16 217 -17 237 -1 11 10 17 9 27
-3 7 -8 9 -15 4 -15 -5 0 -3 -4 5 -9 17 -11 4 -34 -16 -27 -8 3 -21 -1 -29 -9
-25 -24 -243 -17 -227 8 4 6 0 8 -9 4 -10 -3 -28 7 -48 26 -24 23 -30 26 -22
10 7 -12 17 -24 24 -26 9 -4 8 -6 -2 -6 -18 -1 -80 112 -80 145 0 11 5 25 12
32 14 14 54 16 63 3z m190 -51 c3 -5 -1 -10 -10 -10 -9 0 -13 5 -10 10 3 6 8
10 10 10 2 0 7 -4 10 -10z m-180 -20 c3 -5 19 -10 35 -10 16 0 32 5 35 10 3 6
17 10 30 10 20 0 24 -5 23 -25 -2 -26 -17 -30 -53 -16 -12 5 -25 4 -33 -2 -10
-8 -20 -3 -40 16 -15 15 -21 27 -15 27 7 0 15 -4 18 -10z"/>
<path d="M292 395 c0 -16 2 -22 5 -12 2 9 2 23 0 30 -3 6 -5 -1 -5 -18z"/>
<path d="M75 440 c-3 -5 -1 -10 4 -10 6 0 11 5 11 10 0 6 -2 10 -4 10 -3 0 -8
-4 -11 -10z"/>
<path d="M216 55 c-3 -8 -1 -15 4 -15 6 0 10 4 10 9 0 5 10 12 23 14 20 4 19
4 -4 6 -16 0 -29 -5 -33 -14z"/>
<path d="M320 60 l-45 -7 40 0 c22 0 54 3 70 7 26 7 27 8 5 7 -14 0 -45 -3
-70 -7z"/>
</g>
</svg>
